<?xml version="1.0" encoding="iso-8859-1"?>
<!-- Generator: Adobe Illustrator 19.0.0, SVG Export Plug-In . SVG Version: 6.00 Build 0)  -->
<svg version="1.1" id="Layer_1" xmlns="http://www.w3.org/2000/svg" xmlns:xlink="http://www.w3.org/1999/xlink" x="0px" y="0px"
	 viewBox="0 0 512.001 512.001" style="enable-background:new 0 0 512.001 512.001;" xml:space="preserve">
<polyline style="fill:#EDAB06;" points="90.383,60.127 387.911,10.538 387.911,154.639 "/>
<rect x="90.383" y="60.127" style="fill:#FDBB00;" width="332.242" height="443.816"/>
<g>
	<path style="fill:#8CC63F;" d="M148.65,503.943H90.383v-58.266C122.566,445.676,148.65,471.76,148.65,503.943z"/>
	<path style="fill:#8CC63F;" d="M422.625,445.676v58.266h-58.266C364.359,471.76,390.443,445.676,422.625,445.676z"/>
	<path style="fill:#8CC63F;" d="M422.625,60.127v58.266c-32.183,0-58.266-26.083-58.266-58.266H422.625z"/>
	<path style="fill:#8CC63F;" d="M90.383,60.127h58.266c0,32.183-26.083,58.266-58.266,58.266V60.127z"/>
	<path style="fill:#8CC63F;" d="M344.958,222.196c-1.357-6.923-4.726-13.529-10.102-18.881c-14.337-14.27-37.53-14.216-51.8,0.121
		c-8.165,8.203-20.362,28.077-26.626,46.255c-6.35-18.148-18.64-37.964-26.843-46.13c-14.337-14.27-37.53-14.216-51.8,0.122
		c-14.27,14.337-14.216,37.53,0.122,51.8c8.203,8.165,28.077,20.362,46.255,26.626c-18.148,6.35-37.964,18.64-46.13,26.843
		c-14.27,14.337-14.216,37.53,0.122,51.8c14.337,14.27,37.53,14.216,51.8-0.121c8.166-8.204,20.362-28.077,26.626-46.255
		c6.35,18.149,18.64,37.964,26.843,46.13c14.337,14.27,37.53,14.216,51.8-0.121c14.27-14.337,14.216-37.53-0.121-51.8
		c-8.203-8.165-28.077-20.362-46.255-26.626c18.148-6.35,37.964-18.64,46.13-26.843"/>
</g>
<path d="M422.121,49.589h-25.417V9.299c0-2.734-1.203-5.328-3.288-7.095c-2.085-1.767-4.839-2.528-7.539-2.077L88.35,49.716
	l0.001,0.01c-4.406,0.73-7.77,4.548-7.77,9.161V390.17c0,5.135,4.163,9.298,9.298,9.298s9.298-4.163,9.298-9.298V125.797
	c29.827-4.126,53.486-27.784,57.612-57.612h198.424c4.126,29.827,27.783,53.486,57.611,57.611v309.998
	c-29.827,4.126-53.486,27.784-57.611,57.611H156.788c-4.126-29.827-27.784-53.486-57.611-57.611v-14.631
	c0-5.135-4.163-9.298-9.298-9.298c-5.135,0-9.298,4.163-9.298,9.298v81.541c0,5.135,4.163,9.298,9.298,9.298h332.242
	c5.136,0,9.298-4.163,9.298-9.298V58.887C431.419,53.752,427.257,49.589,422.121,49.589z M378.109,49.589H202.221l175.887-29.314
	V49.589z M99.177,106.959V68.185h38.774C134.175,87.741,118.733,103.184,99.177,106.959z M374.049,68.185h38.774v38.774
	C393.267,103.184,377.825,87.741,374.049,68.185z M99.177,454.632c19.556,3.776,34.998,19.218,38.774,38.774H99.177V454.632z
	 M374.049,493.405c3.776-19.556,19.218-34.998,38.774-38.774v38.774H374.049z"/>
<path d="M157.315,228.391c0.029,12.267,4.832,23.789,13.528,32.443c5.83,5.803,17.004,13.534,29.669,20.091
	c-12.634,6.618-23.77,14.4-29.575,20.23c-8.653,8.695-13.404,20.239-13.375,32.506c0.029,12.267,4.832,23.789,13.528,32.443
	c8.947,8.905,20.672,13.353,32.397,13.353c11.797,0,23.592-4.505,32.551-13.507c5.803-5.83,13.534-17.003,20.093-29.67
	c6.618,12.636,14.399,23.771,20.23,29.573c8.668,8.628,20.169,13.376,32.395,13.376c0.036,0,0.074,0,0.112,0
	c12.267-0.029,23.789-4.832,32.442-13.528c8.654-8.694,13.405-20.238,13.376-32.506c-0.029-12.267-4.832-23.789-13.528-32.443
	c-5.832-5.803-17.005-13.534-29.67-20.091c12.634-6.618,23.77-14.399,29.573-20.23c3.622-3.64,3.609-9.526-0.03-13.148
	c-3.641-3.624-9.526-3.61-13.148,0.03c-7.168,7.201-26,18.815-42.611,24.627c-3.737,1.308-6.236,4.839-6.226,8.798
	s2.525,7.479,6.269,8.768c16.637,5.734,35.523,17.258,42.725,24.426c5.175,5.15,8.033,12.007,8.051,19.306
	c0.017,7.299-2.81,14.17-7.96,19.344c-5.15,5.173-12.007,8.032-19.306,8.049c-0.024,0-0.045,0-0.067,0
	c-7.275,0-14.12-2.825-19.277-7.96c-7.201-7.166-18.815-25.998-24.627-42.61c-1.305-3.73-4.826-6.227-8.776-6.227
	c-0.007,0-0.015,0-0.022,0c-3.958,0.009-7.478,2.525-8.768,6.268c-5.735,16.639-17.26,35.525-24.427,42.725
	c-10.63,10.681-27.97,10.722-38.65,0.09c-10.681-10.631-10.722-27.97-0.092-38.65c7.168-7.201,26-18.815,42.611-24.627
	c3.738-1.308,6.236-4.839,6.227-8.798s-2.525-7.479-6.269-8.768c-16.637-5.734-35.524-17.258-42.724-24.426
	c-5.175-5.15-8.033-12.007-8.051-19.306c-0.017-7.301,2.809-14.17,7.959-19.344c5.15-5.175,12.007-8.033,19.306-8.051
	c0.022,0,0.043,0,0.066,0c7.276,0,14.12,2.825,19.279,7.96c7.2,7.166,18.814,25.998,24.627,42.61
	c1.305,3.73,4.825,6.227,8.776,6.227c0.007,0,0.015,0,0.022,0c3.958-0.009,7.478-2.525,8.768-6.268
	c5.735-16.639,17.26-35.525,24.426-42.725c5.15-5.173,12.007-8.032,19.307-8.049c0.022,0,0.043,0,0.066,0
	c7.276,0,14.12,2.825,19.279,7.959c3.883,3.865,6.489,8.734,7.536,14.079c0.989,5.038,5.875,8.331,10.913,7.335
	c5.039-0.988,8.323-5.874,7.337-10.913c-1.765-9-6.145-17.19-12.667-23.682c-8.668-8.627-20.17-13.375-32.396-13.375
	c-0.036,0-0.074,0-0.112,0c-12.268,0.029-23.789,4.832-32.442,13.528c-5.804,5.83-13.534,17.003-20.092,29.67
	c-6.618-12.634-14.4-23.771-20.23-29.575c-8.669-8.627-20.169-13.375-32.395-13.375c-0.037,0-0.074,0-0.11,0
	c-12.268,0.029-23.789,4.832-32.442,13.528C162.036,204.58,157.287,216.124,157.315,228.391z"/>
<path d="M328.519,158.07c5.136,0,9.298-4.163,9.298-9.298s-4.162-9.298-9.298-9.298h-79.948c-5.135,0-9.298,4.163-9.298,9.298
	s4.163,9.298,9.298,9.298H328.519z"/>
<path d="M217.579,158.07c5.135,0,9.298-4.163,9.298-9.298s-4.163-9.298-9.298-9.298h-34.098c-5.135,0-9.298,4.163-9.298,9.298
	s4.163,9.298,9.298,9.298H217.579z"/>
<path d="M183.481,403.521c-5.135,0-9.298,4.163-9.298,9.298c0,5.135,4.163,9.298,9.298,9.298h145.039
	c5.136,0,9.298-4.163,9.298-9.298c0-5.135-4.162-9.298-9.298-9.298H183.481z"/>
<g>
</g>
<g>
</g>
<g>
</g>
<g>
</g>
<g>
</g>
<g>
</g>
<g>
</g>
<g>
</g>
<g>
</g>
<g>
</g>
<g>
</g>
<g>
</g>
<g>
</g>
<g>
</g>
<g>
</g>
</svg>
